<?xml version="1.0" encoding="UTF-8" standalone="no"?>
<!-- Created with Inkscape (http://www.inkscape.org/) -->

<svg
   version="1.1"
   id="svg1"
   width="4799.6802"
   height="867.52002"
   viewBox="0 0 4799.6802 867.52002"
   sodipodi:docname="Logo.svg"
   inkscape:version="1.3.2 (091e20e, 2023-11-25)"
   xmlns:inkscape="http://www.inkscape.org/namespaces/inkscape"
   xmlns:sodipodi="http://sodipodi.sourceforge.net/DTD/sodipodi-0.dtd"
   xmlns="http://www.w3.org/2000/svg"
   xmlns:svg="http://www.w3.org/2000/svg">
  <defs
     id="defs1" />
  <sodipodi:namedview
     id="namedview1"
     pagecolor="#ffffff"
     bordercolor="#000000"
     borderopacity="0.25"
     inkscape:showpageshadow="2"
     inkscape:pageopacity="0.0"
     inkscape:pagecheckerboard="0"
     inkscape:deskcolor="#d1d1d1"
     inkscape:zoom="0.071262404"
     inkscape:cx="1866.3418"
     inkscape:cy="1073.4973"
     inkscape:window-width="1544"
     inkscape:window-height="640"
     inkscape:window-x="0"
     inkscape:window-y="38"
     inkscape:window-maximized="0"
     inkscape:current-layer="g1" />
  <g
     inkscape:groupmode="layer"
     inkscape:label="Image"
     id="g1">
    <path
       style="fill:#000000"
       d="M 4.3058302,863.2369 C 9.9286696,857.14105 33.212088,831.27119 57.083068,804.59695 68.423336,791.92495 83.862005,774.6804 91.391225,766.27572 L 105.0807,750.99449 105.0678,433.79571 105.0549,116.59693 53.503723,58.99694 1.9525422,1.3969389 36.796641,1.1948289 C 117.2497,0.72817886 1457.15,0.11693886 2399.641,0.11693886 c 942.7187,0 2285.0208,0.61168 2365.4028,1.07791004 l 34.8428,0.20209 -20.9034,23.3600011 c -137.066,153.17417 -258.7143,289.99613 -311.9681,350.88106 -35.1881,40.23054 -48.654,56.25967 -48.654,57.91523 0,3.61987 83.605,98.43488 327.1754,371.04372 22.1725,24.816 42.7327,47.82293 45.6892,51.12651 2.9564,3.30358 5.3754,6.15114 5.3754,6.32794 0,1.2445 -8.9252,1.9251 -33.28,2.5379 -100.7721,2.5357 -442.73,2.869 -2954.3431,2.8798 L 0.39489517,867.4791 Z M 649.50816,750.27695 c -0.53796,-0.572 -52.0137,-59.36 -114.39052,-130.64001 C 408.77084,475.2564 349.1386,407.22318 328.47205,383.87917 c -3.07623,-3.47477 -5.8808,-6.40906 -6.23238,-6.52065 -0.86551,-0.2747 -1.65979,0.7568 -2.07556,2.69547 -1.96036,9.14083 -2.26634,39.64032 -2.27597,226.86295 l -0.007,144.40001 H 484.18349 650.48627 Z M 1005.2408,433.55694 V 115.79693 h -61.28007 -61.28 l -0.004,10.96 c -0.002,6.028 -0.3604,96.71201 -0.79592,201.52001 -0.43551,104.808 -0.79368,193.6285 -0.79592,197.37889 -0.002,4.15878 -0.12107,6.74658 -0.30398,6.63353 -0.16495,-0.10194 -29.30661,-33.26644 -64.75924,-73.69889 -35.4527,-40.43244 -82.90682,-94.53753 -105.45366,-120.23353 l -40.99425,-46.72 -0.007,-87.92001 -0.007,-87.92 h -147.2496 -147.2496 l 0.6096,0.71399 c 0.33528,0.39269 2.26717,2.51669 4.29309,4.72 7.98476,8.68389 56.34494,63.76214 144.00166,164.00602 89.19212,101.99973 135.2713,154.3777 146.40709,166.42017 11.34665,12.27048 59.84632,67.3525 155.74777,176.88577 l 56.56,64.59967 v 29.0872 29.0872 h 61.28 61.28003 z m 904.7785,317.45046 c -0.1702,-0.17025 -5.563,-3.1352 -11.984,-6.58879 -18.982,-10.20972 -29.9484,-17.03349 -42.4274,-26.40013 -11.7868,-8.84705 -20.2386,-16.21643 -31.5179,-27.48145 -4.681,-4.67505 -10.2283,-10.44408 -12.3275,-12.82008 -36.849,-41.70963 -61.481,-90.58152 -72.2795,-143.40866 -1.6448,-8.04631 -1.9135,-10.0176 -2.5454,-18.67135 -1.3457,-18.43151 -1.8018,-35.1625 -1.9974,-73.28 -0.2039,-39.72226 0.2085,-63.39645 1.516,-87.04 0.7052,-12.75133 1.2966,-17.70507 3.228,-27.04 16.7931,-81.1669 69.7608,-156.76328 138.8367,-198.14995 3.08,-1.84538 9.992,-5.77136 15.36,-8.7244 5.368,-2.95305 9.82,-5.42238 9.8933,-5.48742 0.073,-0.065 -58.2827,-0.11824 -129.68,-0.11824 h -129.8133 v 61.28 61.28001 h -212.96 -212.9601 v 61.28 61.28 h 212.9601 212.96 v 71.04 71.04 h -212.96 -212.9601 v 62.88 62.88 h 212.9601 212.96 v 61.28001 61.28 h 133.024 c 85.6871,0 132.9138,-0.11015 132.7144,-0.30955 z M 2625.4009,433.55694 V 115.79693 h -136.2133 c -74.9174,0 -136.1534,0.0561 -136.08,0.12461 0.073,0.0685 4.8832,2.75424 10.6886,5.96823 16.5777,9.17776 25.392,14.76894 36.8668,23.38559 12.3114,9.24487 19.9222,15.91277 32.4432,28.42397 12.8626,12.85251 20.9478,22.14567 30.9182,35.5376 19.0664,25.60946 32.7289,51.19984 43.4083,81.30565 8.9813,25.31904 12.2369,44.81733 13.9941,83.81436 0.5281,11.71812 0.7576,84.91262 0.3202,102.06029 -1.3635,53.44109 -5.2711,75.30059 -19.9371,111.53036 -20.3643,50.3064 -56.2467,96.64383 -100.6759,130.0098 -12.8418,9.64413 -23.5035,16.31195 -42.2931,26.45018 -6.424,3.46617 -11.8168,6.43876 -11.984,6.60575 -0.1918,0.1915 51.1829,0.30363 139.12,0.30363 h 139.424 z m 545.0823,317.37897 c -0.1295,-0.20957 -48.7049,-55.75757 -107.9453,-123.44 -159.5707,-182.31022 -217.2657,-248.05606 -219.1472,-249.72702 -2.2429,-1.9919 -3.2173,1.7796 -3.9135,15.14805 -0.748,14.36248 -0.9426,55.99689 -0.9492,203.12 l -0.01,155.28001 h 166.0989 c 128.3891,0 166.0454,-0.0865 165.8634,-0.38104 z M 3525.8809,433.55694 V 115.79693 h -61.28 -61.28 v 317.76001 317.76001 h 61.28 61.28 z m 365.7968,267.76001 c 93.2761,-104.58977 266.3238,-298.68931 352.1231,-394.96001 49.0961,-55.088 107.0748,-120.12632 128.8417,-144.52958 l 39.576,-44.36958 -3.8888,-0.18433 c -10.7627,-0.51016 -76.3036,-0.99652 -134.2887,-0.99652 -58.2061,0 -126.6254,0.49728 -137.1741,0.99699 l -3.8941,0.18447 17.6568,19.72927 c 21.2489,23.74292 24.8569,27.84539 31.4454,35.75492 9.6525,11.58781 16.9955,21.49541 17.5404,23.6666 0.1818,0.72421 -0.082,1.25267 -1.6389,3.28598 -12.7115,16.59882 -111.3117,128.55654 -132.5103,150.46178 l -3.871,4 -1.4933,-1.44 c -8.908,-8.58983 -51.3387,-55.72891 -155.501,-172.75624 l -57.28,-64.35466 -50.96,-0.005 -50.96,-0.005 v 317.76001 317.76001 h 50.8427 50.8427 z m 521.9951,49.6 c -0.1352,-0.22 -4.6474,-5.296 -10.0271,-11.28 -15.5905,-17.34203 -44.7689,-50.03332 -78.401,-87.84001 -37.2061,-41.82437 -47.2742,-53.03853 -48.6803,-54.22167 -2.5293,-2.12822 -5.918,-0.29745 -13.8357,7.47476 -9.1528,8.98463 -16.7631,17.39603 -62.4145,68.98459 -42.9486,48.53423 -56.9418,64.26471 -63.054,70.88233 -2.8448,3.08 -5.2814,5.78 -5.4147,6 -0.1937,0.31976 28.0733,0.4 140.9155,0.4 112.844,0 141.1084,-0.0802 140.9118,-0.4 z M 2139.4809,627.15669 c 44.035,-0.74706 75.6328,-2.21161 86.2584,-3.99805 7.0038,-1.17751 17.4506,-5.91242 26.8616,-12.17472 12.5435,-8.34677 23.1172,-19.2482 30.4283,-31.37156 15.3561,-25.46345 18.7249,-37.96551 20.4725,-75.97542 0.8479,-18.4423 0.8518,-124.80769 0.01,-143.36 -1.7062,-37.3904 -4.8627,-49.57426 -19.1506,-73.92 -7.3531,-12.52924 -15.2794,-21.41356 -26.9139,-30.16685 -8.5467,-6.43014 -20.7568,-12.70553 -29.7903,-15.3107 -7.8707,-2.26983 -30.2073,-3.49674 -75.4804,-4.14601 -48.6552,-0.69777 -101.4573,0.69071 -117.8108,3.09796 -5.5491,0.81683 -12.6389,3.35807 -20.4841,7.34229 -24.7168,12.55248 -43.4553,36.6257 -54.5371,70.06331 -6.0383,18.2198 -6.5635,27.53581 -6.5664,116.48 0,84.64404 0.5458,93.81145 6.7678,113.10296 9.9722,30.91963 25.7354,52.79548 47.2998,65.64172 11.4077,6.79578 26.118,11.58153 40.64,13.22155 13.783,1.55656 51.4986,2.16064 92,1.47352 z M 3189.0627,354.66975 c 0.5106,-96.5822 0.6672,-222.96641 0.2882,-232.5766 l -0.2101,-5.326 -1.1499,-0.2433 c -2.8488,-0.60275 -265.4733,0.16225 -284.8039,0.82961 l -5.8938,0.20347 82.6939,94.26527 c 45.4816,51.84589 110.9898,126.53325 145.5738,165.9719 34.584,39.43866 62.9073,71.68005 62.9405,71.64755 0.033,-0.0325 0.2859,-42.67985 0.5613,-94.7719 z"
       id="path1" />
  </g>
</svg>
